<svg xmlns="http://www.w3.org/2000/svg" viewBox="0 0 579.67 496.63"><g id="Layer_2" data-name="Layer 2"><g id="Layer_1-2" data-name="Layer 1"><path d="M162.37,252.5A125.48,125.48,0,0,1,182.75,73.71c-.1-.2-.19-.41-.28-.61a126.12,126.12,0,0,1,42.59-21.21c-.25-.29-.5-.56-.74-.86a43.11,43.11,0,0,1-4.62-6.83c-.34-.64-.65-1.24-.95-1.85-.61-1.29-1.16-2.58-1.64-3.87a43,43,0,0,1,1-32,166.62,166.62,0,0,0-53.44,22.86l-2.62,1.75a171.53,171.53,0,0,0,.2,283.58c4.17,2.84,8.48,5.47,12.87,7.93,0-.1,0-.19,0-.29a167.72,167.72,0,0,0,43.87,17,42.51,42.51,0,0,1-3.61-17.22c0-1.47.08-3,.22-4.39a42.79,42.79,0,0,1,2.39-10.4c.48-1.29,1-2.59,1.64-3.87.3-.62.61-1.22.95-1.85a43.6,43.6,0,0,1,4.61-6.84l.75-.85A126.07,126.07,0,0,1,162.37,252.5Z"/><path d="M410.76,155.76c-3.14-39-38.1-68.72-79.42-68.72q-3,0-6,.21c-24.92,1.74-47.52,14.27-61.05,33.84h-5.77c-26.83,0-49.65,16-58.14,38.26a53.8,53.8,0,0,0,.95,40.71c9.14,21.08,31.29,35.95,57.19,35.95l-.09.09H404.45c23.76,0,43.13-17.85,43.34-40C448,175.9,432.17,158.7,410.76,155.76Z"/><path d="M253.32,0a23,23,0,0,0,0,46h185.5a23,23,0,0,0,0-46Z"/><path d="M444.23,344a21.68,21.68,0,0,0,22.49-19.51c0-.39.07-.79.09-1.16s0-.81,0-1.21a23,23,0,0,0-23-23H258.34a23.36,23.36,0,0,0-2.37.12,22.25,22.25,0,0,0-2.83.46,24.88,24.88,0,0,0-2.71.81c-.69.25-1.38.55-2.06.87-.33.16-.65.32-1,.51a22.67,22.67,0,0,0-3.67,2.47c-.29.24-.57.49-.84.73-.54.49-1.07,1-1.58,1.58l-.71.82a23.64,23.64,0,0,0-2.48,3.67c-.17.32-.34.65-.51,1-.32.66-.61,1.36-.87,2a22.78,22.78,0,0,0-1.27,5.53,23.71,23.71,0,0,0-.12,2.38,22.64,22.64,0,0,0,2.24,9.91c.32.66.67,1.32,1,2a23.09,23.09,0,0,0,1.91,2.7,20.9,20.9,0,0,0,1.48,1.63c.52.53,1.06,1,1.61,1.49.29.23.58.46.89.69.57.44,1.19.86,1.81,1.25s1.28.74,1.94,1.06a22.14,22.14,0,0,0,2.31,1c2.9.14,5.81.23,8.73.23Z"/><path d="M90,478.71a44.48,44.48,0,0,1-15.26,13q-9.39,5-22.54,5a55.68,55.68,0,0,1-20.94-3.85A48.67,48.67,0,0,1,14.77,482,49.59,49.59,0,0,1,3.92,465.48,58.5,58.5,0,0,1,4,423.19a48,48,0,0,1,11.06-16.38,50.24,50.24,0,0,1,16.73-10.57,57.22,57.22,0,0,1,21-3.78,55.23,55.23,0,0,1,10.22,1A50.61,50.61,0,0,1,73,396.38a41.43,41.43,0,0,1,8.68,4.83,31.4,31.4,0,0,1,6.72,6.65l-10.92,8.4a27.3,27.3,0,0,0-10.29-8.33,32,32,0,0,0-14.35-3.29,37.38,37.38,0,0,0-15.62,3.15,35.37,35.37,0,0,0-11.83,8.61,38.89,38.89,0,0,0-7.56,12.67,44.05,44.05,0,0,0-2.66,15.34,46.39,46.39,0,0,0,2.59,15.68,37.73,37.73,0,0,0,7.42,12.67,34.24,34.24,0,0,0,11.76,8.47,37.8,37.8,0,0,0,15.48,3.08A34.24,34.24,0,0,0,67.63,481,29.46,29.46,0,0,0,79,471.15Z"/><path d="M163.82,460.37v2.24a18.71,18.71,0,0,1-.14,2.24H110.89a19.82,19.82,0,0,0,1.89,7.85,20.77,20.77,0,0,0,4.7,6.4,21.69,21.69,0,0,0,6.79,4.24,21.92,21.92,0,0,0,8.19,1.53,22.17,22.17,0,0,0,11.62-2.94,23.71,23.71,0,0,0,7.7-7.14l9.24,7.42a33,33,0,0,1-12.53,10.39,40.2,40.2,0,0,1-30,.81,32.23,32.23,0,0,1-11.07-7.07,32.87,32.87,0,0,1-7.28-11,37.1,37.1,0,0,1-2.66-14.28,38,38,0,0,1,2.6-14.21,32.64,32.64,0,0,1,7.22-11.14,33.19,33.19,0,0,1,11-7.21,37.58,37.58,0,0,1,26.87-.21,27.5,27.5,0,0,1,10.1,6.86A31,31,0,0,1,161.58,446,43.14,43.14,0,0,1,163.82,460.37Zm-13.44-5.32a25,25,0,0,0-1.33-7.35,17.08,17.08,0,0,0-3.5-6,16.65,16.65,0,0,0-5.74-4,20.33,20.33,0,0,0-8.05-1.47,21.26,21.26,0,0,0-7.91,1.47,20.65,20.65,0,0,0-6.44,4,21.06,21.06,0,0,0-4.49,6,19.09,19.09,0,0,0-2,7.35Z"/><path d="M181.88,435.16q-.13-4.2-.42-7.42h12.46q.29,2.52.42,5.81c.1,2.2.14,4,.14,5.39h.42a23,23,0,0,1,8.2-9.45,21.44,21.44,0,0,1,12.11-3.57,20.6,20.6,0,0,1,5.18.56l-.56,12.18a25.16,25.16,0,0,0-6-.7,18.32,18.32,0,0,0-8.26,1.75,16.75,16.75,0,0,0-5.81,4.7,19.68,19.68,0,0,0-3.43,6.79,28.57,28.57,0,0,0-1.12,8.05v34.86H182V442C182,440.25,182,438,181.88,435.16Z"/><path d="M245.73,483.61v10.5H233V388.26h13.16v49.42h.42a27.84,27.84,0,0,1,9.36-8.33,28.31,28.31,0,0,1,14.25-3.43,33.28,33.28,0,0,1,13.47,2.66A31.18,31.18,0,0,1,294.13,436a33.45,33.45,0,0,1,6.77,11.14,38.6,38.6,0,0,1,2.38,13.65,39.19,39.19,0,0,1-2.38,13.72,33.89,33.89,0,0,1-6.7,11.2,30.89,30.89,0,0,1-10.48,7.49,33.65,33.65,0,0,1-13.82,2.73,30.38,30.38,0,0,1-13.55-3.15A25.43,25.43,0,0,1,246,483.61Zm44.11-22.75a29,29,0,0,0-1.4-8.94,23,23,0,0,0-4.2-7.67,20.07,20.07,0,0,0-6.93-5.31,22.3,22.3,0,0,0-9.6-2,21.23,21.23,0,0,0-9.17,2,21.48,21.48,0,0,0-7.07,5.31,24.37,24.37,0,0,0-4.55,7.67,26.38,26.38,0,0,0,0,18.15,23.54,23.54,0,0,0,4.55,7.61,22.14,22.14,0,0,0,7.07,5.24,21.23,21.23,0,0,0,9.17,1.95,21.59,21.59,0,0,0,9.6-2,20.88,20.88,0,0,0,6.93-5.38,22.93,22.93,0,0,0,4.2-7.68A28.9,28.9,0,0,0,289.84,460.86Z"/><path d="M383.79,460.37v2.24a18.71,18.71,0,0,1-.14,2.24H330.86a19.49,19.49,0,0,0,1.89,7.85,20.74,20.74,0,0,0,4.69,6.4,21.69,21.69,0,0,0,6.79,4.24A23.69,23.69,0,0,0,364,481.93a23.75,23.75,0,0,0,7.71-7.14l9.24,7.42a33.11,33.11,0,0,1-12.53,10.39,40.23,40.23,0,0,1-30,.81,32.28,32.28,0,0,1-11.06-7.07,32.72,32.72,0,0,1-7.28-11,36.92,36.92,0,0,1-2.66-14.28A38,38,0,0,1,320,446.86a32.52,32.52,0,0,1,7.23-11.14,33.19,33.19,0,0,1,10.95-7.21,37.58,37.58,0,0,1,26.87-.21,27.5,27.5,0,0,1,10.1,6.86A30.81,30.81,0,0,1,381.54,446,42.88,42.88,0,0,1,383.79,460.37Zm-13.44-5.32A25.28,25.28,0,0,0,369,447.7a17.08,17.08,0,0,0-3.5-6,16.6,16.6,0,0,0-5.75-4,20.3,20.3,0,0,0-8-1.47,21.26,21.26,0,0,0-7.91,1.47,20.76,20.76,0,0,0-6.44,4,21.22,21.22,0,0,0-4.48,6,18.92,18.92,0,0,0-2,7.35Z"/><path d="M401.85,435.16q-.14-4.2-.42-7.42h12.46q.28,2.52.42,5.81c.09,2.2.14,4,.14,5.39h.42a23,23,0,0,1,8.19-9.45,21.44,21.44,0,0,1,12.11-3.57,20.54,20.54,0,0,1,5.18.56l-.56,12.18a25,25,0,0,0-6-.7,18.35,18.35,0,0,0-8.26,1.75,16.85,16.85,0,0,0-5.81,4.7,19.86,19.86,0,0,0-3.43,6.79,28.57,28.57,0,0,0-1.12,8.05v34.86H402V442Q402,439.36,401.85,435.16Z"/><path d="M499.44,494.11q-.29-2.52-.42-5.67c-.09-2.1-.14-3.85-.14-5.25h-.28a21.62,21.62,0,0,1-8.47,9,24.55,24.55,0,0,1-13.23,3.71,27,27,0,0,1-11.13-2.1,20.39,20.39,0,0,1-7.7-5.81,24.71,24.71,0,0,1-4.48-8.61,36.4,36.4,0,0,1-1.47-10.5V427.74h13.16v36.69a46.31,46.31,0,0,0,.63,7.77,18.63,18.63,0,0,0,2.31,6.51,12.5,12.5,0,0,0,4.62,4.48,15.11,15.11,0,0,0,7.56,1.68,15.87,15.87,0,0,0,12.88-5.95q4.91-6,4.9-15.89V427.74h13.16v52.09q0,2.66.14,6.86c.1,2.8.24,5.28.42,7.42Z"/><path d="M570,444.55a17.31,17.31,0,0,0-6.3-6,18.08,18.08,0,0,0-9.1-2.31,21.27,21.27,0,0,0-4.48.49,12.87,12.87,0,0,0-4,1.55,8.41,8.41,0,0,0-2.8,2.66,7.14,7.14,0,0,0-1.05,4,6.64,6.64,0,0,0,3.78,6.23,46.54,46.54,0,0,0,11.34,3.71,68.94,68.94,0,0,1,8.82,2.66,27.72,27.72,0,0,1,7.07,3.85A16.53,16.53,0,0,1,578,467a16.15,16.15,0,0,1,1.68,7.56,20.37,20.37,0,0,1-2.24,9.94,19.35,19.35,0,0,1-5.95,6.65,24.29,24.29,0,0,1-8.47,3.71,42.5,42.5,0,0,1-9.8,1.12A38.76,38.76,0,0,1,538.44,493a28.9,28.9,0,0,1-12-9l9.38-8a21.55,21.55,0,0,0,7.36,6.58,20.5,20.5,0,0,0,10.29,2.66,23,23,0,0,0,4.83-.49,13.53,13.53,0,0,0,4.2-1.61,8.12,8.12,0,0,0,4.13-7.56,7.27,7.27,0,0,0-4.41-6.86,59.59,59.59,0,0,0-13-4.2c-2.24-.56-4.51-1.24-6.79-2a22.69,22.69,0,0,1-6.24-3.29,16.6,16.6,0,0,1-4.55-5.25,15.88,15.88,0,0,1-1.75-7.77,18.49,18.49,0,0,1,2.17-9.18,19,19,0,0,1,5.68-6.3,25.1,25.1,0,0,1,8-3.64,35.91,35.91,0,0,1,9.24-1.19,35.34,35.34,0,0,1,13.79,2.8,22.92,22.92,0,0,1,10.29,8.12Z"/></g></g></svg>