<svg xmlns="http://www.w3.org/2000/svg" viewBox="0 0 379.69 344"><defs><style>.cls-1{fill:#707070;}.cls-2{fill:#e54817;}.cls-3{fill:#383838;}</style></defs><g id="Layer_2" data-name="Layer 2"><g id="Layer_1-2" data-name="Layer 1"><path class="cls-1" d="M75.22,252.5A125.5,125.5,0,0,1,95.6,73.71c-.09-.2-.18-.41-.28-.61a126.21,126.21,0,0,1,42.59-21.21c-.25-.29-.5-.56-.74-.86a42.39,42.39,0,0,1-4.61-6.83c-.35-.64-.66-1.24-.95-1.85-.62-1.29-1.17-2.58-1.64-3.87a43.09,43.09,0,0,1,1-32A166.62,166.62,0,0,0,77.52,29.33L74.9,31.08a171.53,171.53,0,0,0,.2,283.58c4.18,2.84,8.48,5.47,12.88,7.93,0-.1,0-.19,0-.29a167.86,167.86,0,0,0,43.87,17,43.06,43.06,0,0,1-1-32c.47-1.29,1-2.59,1.63-3.87.3-.62.61-1.22.95-1.85a43.66,43.66,0,0,1,4.62-6.84c.24-.29.49-.57.74-.85A126.12,126.12,0,0,1,75.22,252.5Z"/><path class="cls-2" d="M323.61,155.76c-3.14-39-38.1-68.72-79.41-68.72q-3,0-6.06.21c-24.92,1.74-47.51,14.27-61,33.84h-5.77c-26.83,0-49.65,16-58.13,38.26a53.86,53.86,0,0,0,.94,40.71c9.14,21.08,31.3,35.95,57.19,35.95l-.09.09H317.3c23.77,0,43.14-17.85,43.34-40C360.83,175.9,345,158.7,323.61,155.76Z"/><path class="cls-3" d="M166.17,0a23,23,0,0,0,0,46h185.5a23,23,0,0,0,0-46Z"/><path class="cls-3" d="M357.09,344a23,23,0,0,0,21.44-14.7,21.83,21.83,0,0,0,1-4.81c0-.39.08-.79.09-1.16s0-.81,0-1.21a23,23,0,0,0-23-23H171.19a23.36,23.36,0,0,0-2.37.12,22.55,22.55,0,0,0-2.83.46,25.56,25.56,0,0,0-2.71.81c-.69.25-1.38.55-2.06.87-.32.16-.65.32-1,.51a23.11,23.11,0,0,0-3.67,2.47c-.29.24-.57.49-.84.73-.54.49-1.07,1-1.58,1.58l-.71.82a22.9,22.9,0,0,0-2.47,3.67c-.18.32-.35.65-.52,1a21.65,21.65,0,0,0-.86,2,22.78,22.78,0,0,0-1.27,5.53,21.09,21.09,0,0,0-.13,2.38,22.78,22.78,0,0,0,2.24,9.91c.32.66.67,1.32,1,2a23.09,23.09,0,0,0,1.91,2.7c.47.57,1,1.12,1.48,1.63s1.07,1,1.61,1.49c.29.23.58.46.89.69.58.44,1.19.86,1.82,1.25s1.27.74,1.93,1.06a22.3,22.3,0,0,0,2.32,1c2.9.14,5.8.23,8.72.23Z"/></g></g></svg>