<svg xmlns="http://www.w3.org/2000/svg" viewBox="0 0 1250.96 344"><defs><style>.cls-1{fill:#707070;}.cls-2{fill:#e54817;}.cls-3{fill:#383838;}</style></defs><g id="Layer_2" data-name="Layer 2"><g id="Layer_1-2" data-name="Layer 1"><path class="cls-1" d="M75.22,252.5A125.5,125.5,0,0,1,95.6,73.71c-.09-.2-.18-.41-.28-.61a126.21,126.21,0,0,1,42.59-21.21c-.25-.29-.5-.56-.74-.86a42.39,42.39,0,0,1-4.61-6.83c-.35-.64-.66-1.24-.95-1.85-.62-1.29-1.17-2.58-1.64-3.87a43.09,43.09,0,0,1,1-32A166.62,166.62,0,0,0,77.52,29.33L74.9,31.08a171.53,171.53,0,0,0,.2,283.58c4.18,2.84,8.48,5.47,12.88,7.93,0-.1,0-.19,0-.29a167.86,167.86,0,0,0,43.87,17,43.06,43.06,0,0,1-1-32c.47-1.29,1-2.59,1.63-3.87.3-.62.61-1.22.95-1.85a43.66,43.66,0,0,1,4.62-6.84c.24-.29.49-.57.74-.85A126.12,126.12,0,0,1,75.22,252.5Z"/><path class="cls-2" d="M323.61,155.76c-3.14-39-38.1-68.72-79.41-68.72q-3,0-6.06.21c-24.92,1.74-47.51,14.27-61,33.84h-5.77c-26.83,0-49.65,16-58.13,38.26a53.86,53.86,0,0,0,.94,40.71c9.14,21.08,31.3,35.95,57.19,35.95l-.09.09H317.3c23.77,0,43.14-17.85,43.34-40C360.83,175.9,345,158.7,323.61,155.76Z"/><path class="cls-3" d="M166.17,0a23,23,0,0,0,0,46h185.5a23,23,0,0,0,0-46Z"/><path class="cls-3" d="M357.09,344a23,23,0,0,0,21.44-14.7,21.83,21.83,0,0,0,1-4.81c0-.39.08-.79.09-1.16s0-.81,0-1.21a23,23,0,0,0-23-23H171.19a23.36,23.36,0,0,0-2.37.12,22.55,22.55,0,0,0-2.83.46,25.56,25.56,0,0,0-2.71.81c-.69.25-1.38.55-2.06.87-.32.16-.65.32-1,.51a23.11,23.11,0,0,0-3.67,2.47c-.29.24-.57.49-.84.73-.54.49-1.07,1-1.58,1.58l-.71.82a22.9,22.9,0,0,0-2.47,3.67c-.18.32-.35.65-.52,1a21.65,21.65,0,0,0-.86,2,22.78,22.78,0,0,0-1.27,5.53,21.09,21.09,0,0,0-.13,2.38,22.78,22.78,0,0,0,2.24,9.91c.32.66.67,1.32,1,2a23.09,23.09,0,0,0,1.91,2.7c.47.57,1,1.12,1.48,1.63s1.07,1,1.61,1.49c.29.23.58.46.89.69.58.44,1.19.86,1.82,1.25s1.27.74,1.93,1.06a22.3,22.3,0,0,0,2.32,1c2.9.14,5.8.23,8.72.23Z"/><path class="cls-3" d="M564.34,206.44a62.43,62.43,0,0,1-21.4,18.16q-13.16,7-31.62,7a78.07,78.07,0,0,1-29.35-5.4,68.33,68.33,0,0,1-23.17-15.12,69.45,69.45,0,0,1-15.21-23.17,77.24,77.24,0,0,1-5.5-29.55,76.68,76.68,0,0,1,5.59-29.74,67.17,67.17,0,0,1,15.51-23,70.71,70.71,0,0,1,23.47-14.83,80.2,80.2,0,0,1,29.45-5.3,77.47,77.47,0,0,1,14.33,1.37A71.84,71.84,0,0,1,540.38,91a57.89,57.89,0,0,1,12.18,6.77,44.11,44.11,0,0,1,9.42,9.33l-15.31,11.78a38.33,38.33,0,0,0-14.43-11.68,44.74,44.74,0,0,0-20.13-4.62A52.23,52.23,0,0,0,490.22,107a49.51,49.51,0,0,0-16.59,12.07A54.6,54.6,0,0,0,463,136.83a61.82,61.82,0,0,0-3.73,21.5,65,65,0,0,0,3.64,22,52.82,52.82,0,0,0,10.4,17.76A48,48,0,0,0,489.82,210a52.88,52.88,0,0,0,21.7,4.32,48,48,0,0,0,21.4-4.71,41.18,41.18,0,0,0,15.91-13.74Z"/><path class="cls-3" d="M667.81,180.72v3.14a25.33,25.33,0,0,1-.19,3.14h-74a27.64,27.64,0,0,0,2.65,11,29.17,29.17,0,0,0,6.58,9,31,31,0,0,0,21,8.09,31.21,31.21,0,0,0,16.3-4.12,33.29,33.29,0,0,0,10.8-10l13,10.41a46.47,46.47,0,0,1-17.58,14.57,56.4,56.4,0,0,1-42.11,1.14,45.26,45.26,0,0,1-15.51-9.92,45.81,45.81,0,0,1-10.21-15.41,51.94,51.94,0,0,1-3.74-20,53.48,53.48,0,0,1,3.64-19.93,45.62,45.62,0,0,1,10.14-15.61,46.31,46.31,0,0,1,15.35-10.11,52.76,52.76,0,0,1,37.68-.3,38.41,38.41,0,0,1,14.16,9.63,43.38,43.38,0,0,1,9,15.21A60.58,60.58,0,0,1,667.81,180.72ZM649,173.26A35.16,35.16,0,0,0,647.1,163a23.81,23.81,0,0,0-4.91-8.35,23.06,23.06,0,0,0-8.05-5.59A28.41,28.41,0,0,0,622.85,147,29.66,29.66,0,0,0,611.76,149a28.94,28.94,0,0,0-9,5.59,29.62,29.62,0,0,0-6.28,8.35,26.7,26.7,0,0,0-2.85,10.31Z"/><path class="cls-3" d="M693.14,145.38q-.2-5.9-.59-10.41H710c.26,2.36.45,5.07.59,8.15s.19,5.59.19,7.56h.59a32.25,32.25,0,0,1,11.49-13.26,30.13,30.13,0,0,1,17-5,28.91,28.91,0,0,1,7.27.78l-.79,17.08a35,35,0,0,0-8.44-1,25.61,25.61,0,0,0-11.59,2.46,23.66,23.66,0,0,0-8.14,6.57,27.72,27.72,0,0,0-4.81,9.53,40.1,40.1,0,0,0-1.58,11.29V228H693.34V155Q693.34,151.26,693.14,145.38Z"/><path class="cls-3" d="M782.68,213.31V228H764.81V79.6h18.46v69.31h.59A38.83,38.83,0,0,1,797,137.23q8.41-4.81,20-4.81a46.62,46.62,0,0,1,18.91,3.73,43.6,43.6,0,0,1,14.69,10.4A46.91,46.91,0,0,1,860,162.16a54.19,54.19,0,0,1,3.34,19.15A55,55,0,0,1,860,200.55a47.44,47.44,0,0,1-9.4,15.71A43.35,43.35,0,0,1,836,226.76a47.29,47.29,0,0,1-19.39,3.83,42.56,42.56,0,0,1-19-4.42,35.7,35.7,0,0,1-14.49-12.86Zm61.85-31.9a40.39,40.39,0,0,0-2-12.53,31.87,31.87,0,0,0-5.89-10.77,28.3,28.3,0,0,0-9.72-7.44,31.06,31.06,0,0,0-13.45-2.74,29.65,29.65,0,0,0-12.86,2.74,30.32,30.32,0,0,0-9.91,7.44,34.11,34.11,0,0,0-6.38,10.77,37,37,0,0,0,0,25.45A33.09,33.09,0,0,0,790.73,205a30.9,30.9,0,0,0,9.91,7.34,29.65,29.65,0,0,0,12.86,2.74A30.22,30.22,0,0,0,827,212.24a29.19,29.19,0,0,0,9.72-7.54,31.87,31.87,0,0,0,5.89-10.77A40.37,40.37,0,0,0,844.53,181.41Z"/><path class="cls-3" d="M976.27,180.72v3.14a27.42,27.42,0,0,1-.19,3.14h-74a27.47,27.47,0,0,0,2.65,11,29.17,29.17,0,0,0,6.58,9,30.9,30.9,0,0,0,21,8.09,31.21,31.21,0,0,0,16.3-4.12,33.29,33.29,0,0,0,10.8-10l13,10.41a46.47,46.47,0,0,1-17.58,14.57,56.4,56.4,0,0,1-42.11,1.14,45.31,45.31,0,0,1-15.52-9.92,46,46,0,0,1-10.21-15.41,52.13,52.13,0,0,1-3.73-20,53.48,53.48,0,0,1,3.64-19.93A45.62,45.62,0,0,1,897,146.16a46.27,46.27,0,0,1,15.34-10.11,52.76,52.76,0,0,1,37.68-.3,38.37,38.37,0,0,1,14.17,9.63,43.21,43.21,0,0,1,9,15.21A60.32,60.32,0,0,1,976.27,180.72Zm-18.85-7.46A35.16,35.16,0,0,0,955.56,163a23.81,23.81,0,0,0-4.91-8.35,23.15,23.15,0,0,0-8-5.59A28.41,28.41,0,0,0,931.31,147,29.66,29.66,0,0,0,920.22,149a28.94,28.94,0,0,0-9,5.59A29.62,29.62,0,0,0,904.9,163a26.53,26.53,0,0,0-2.85,10.31Z"/><path class="cls-3" d="M1001.6,145.38q-.2-5.9-.59-10.41h17.48c.26,2.36.45,5.07.59,8.15s.19,5.59.19,7.56h.59a32.25,32.25,0,0,1,11.49-13.26,30.13,30.13,0,0,1,17-5,28.91,28.91,0,0,1,7.27.78l-.79,17.08a35,35,0,0,0-8.44-1,25.59,25.59,0,0,0-11.59,2.46,23.66,23.66,0,0,0-8.14,6.57,27.92,27.92,0,0,0-4.82,9.53,40.46,40.46,0,0,0-1.57,11.29V228H1001.8V155Q1001.8,151.26,1001.6,145.38Z"/><path class="cls-3" d="M1138.45,228c-.26-2.36-.46-5-.58-7.95s-.2-5.4-.2-7.37h-.39q-3.54,7.47-11.88,12.67a34.46,34.46,0,0,1-18.56,5.2,37.88,37.88,0,0,1-15.61-3,28.82,28.82,0,0,1-10.8-8.14,34.85,34.85,0,0,1-6.28-12.08,51.14,51.14,0,0,1-2.06-14.72V135h18.46v51.44a64.94,64.94,0,0,0,.88,10.9,26.09,26.09,0,0,0,3.24,9.13,17.53,17.53,0,0,0,6.48,6.28,21.19,21.19,0,0,0,10.6,2.36,22.24,22.24,0,0,0,18.06-8.35q6.89-8.34,6.88-22.28V135h18.45v73c0,2.49.07,5.69.2,9.62s.33,7.4.59,10.41Z"/><path class="cls-3" d="M1237.41,158.53a24.18,24.18,0,0,0-8.84-8.34,25.33,25.33,0,0,0-12.76-3.24,29.81,29.81,0,0,0-6.28.68,18.56,18.56,0,0,0-5.6,2.16,12,12,0,0,0-3.92,3.73,10,10,0,0,0-1.48,5.6,9.31,9.31,0,0,0,5.31,8.74q5.29,2.85,15.9,5.2a99.2,99.2,0,0,1,12.37,3.73,38.72,38.72,0,0,1,9.91,5.4,23.23,23.23,0,0,1,6.58,7.76,22.61,22.61,0,0,1,2.36,10.6,28.56,28.56,0,0,1-3.14,13.94,27.28,27.28,0,0,1-8.35,9.33,34.31,34.31,0,0,1-11.88,5.2,59.63,59.63,0,0,1-13.74,1.57,54.38,54.38,0,0,1-20.72-4.12,40.53,40.53,0,0,1-16.78-12.57l13.15-11.19a30.11,30.11,0,0,0,10.31,9.23,28.79,28.79,0,0,0,14.43,3.73A32.48,32.48,0,0,0,1221,215a19.33,19.33,0,0,0,5.89-2.26,11.37,11.37,0,0,0,5.79-10.6q0-6.48-6.19-9.62t-18.16-5.89c-3.14-.79-6.32-1.73-9.52-2.85a31.88,31.88,0,0,1-8.74-4.61,23.17,23.17,0,0,1-6.38-7.37,22.09,22.09,0,0,1-2.45-10.89,25.75,25.75,0,0,1,3-12.86,26.54,26.54,0,0,1,8-8.84,34.9,34.9,0,0,1,11.19-5.1,50.23,50.23,0,0,1,32.3,2.25,32,32,0,0,1,14.43,11.39Z"/></g></g></svg>